<svg width="16" height="16" viewBox="0 0 16 16" fill="none" xmlns="http://www.w3.org/2000/svg">
<path d="M7.99901 1.48672C10.1229 1.48672 10.4061 1.48672 11.2556 1.55752C12.0344 1.62832 12.4592 1.69911 12.7424 1.84071C13.0963 1.9823 13.3795 2.1239 13.6627 2.40708C13.9459 2.69027 14.0875 2.97345 14.2291 3.32743C14.3707 3.61062 14.4415 4.0354 14.5123 4.81416C14.5831 5.66372 14.5831 5.87611 14.5831 8.0708C14.5831 10.1947 14.5831 10.4779 14.5123 11.3274C14.4415 12.1062 14.3707 12.531 14.2291 12.8142C14.0875 13.1681 13.9459 13.4513 13.6627 13.7345C13.3795 14.0177 13.0963 14.1593 12.7424 14.3009C12.4592 14.4425 12.0344 14.5133 11.2556 14.5841C10.4061 14.6549 10.1937 14.6549 7.99901 14.6549C5.87512 14.6549 5.59193 14.6549 4.74238 14.5841C3.96362 14.5133 3.53884 14.4425 3.25566 14.3009C2.90167 14.1593 2.61849 14.0177 2.3353 13.7345C2.05212 13.4513 1.91052 13.1681 1.76893 12.8142C1.62734 12.531 1.55654 12.1062 1.48575 11.3274C1.41495 10.4779 1.41495 10.2655 1.41495 8.0708C1.41495 5.9469 1.41495 5.66372 1.48575 4.81416C1.55654 4.0354 1.62734 3.61062 1.76893 3.32743C1.91052 2.97345 2.05212 2.69027 2.3353 2.40708C2.61849 2.1239 2.90167 1.9823 3.25566 1.84071C3.53884 1.69911 3.96362 1.62832 4.74238 1.55752C5.66273 1.48672 5.87512 1.48672 7.99901 1.48672ZM7.99901 0C5.80432 0 5.52114 -1.08132e-06 4.67158 0.0707954C3.82203 0.141592 3.25565 0.212388 2.76008 0.424778C2.26451 0.637167 1.76893 0.920355 1.34415 1.34513C0.919375 1.76991 0.63619 2.26549 0.423801 2.76106C0.211412 3.25664 0.0698194 3.82301 0.0698194 4.67257C-0.000976969 5.52212 -0.000976562 5.80531 -0.000976562 8C-0.000976562 10.1947 -0.000976969 10.4779 0.0698194 11.3274C0.140616 12.177 0.211412 12.7434 0.423801 13.2389C0.63619 13.7345 0.919375 14.2301 1.34415 14.6549C1.76893 15.0796 2.26451 15.3628 2.76008 15.5752C3.25565 15.7876 3.82203 15.9292 4.67158 15.9292C5.52114 16 5.80432 16 7.99901 16C10.1937 16 10.4769 16 11.3264 15.9292C12.176 15.8584 12.7424 15.7876 13.2379 15.5752C13.7335 15.3628 14.2291 15.0796 14.6539 14.6549C15.0786 14.2301 15.3618 13.7345 15.5742 13.2389C15.7866 12.7434 15.9282 12.177 15.9282 11.3274C15.999 10.4779 15.999 10.1947 15.999 8C15.999 5.80531 15.999 5.52212 15.9282 4.67257C15.8574 3.82301 15.7866 3.25664 15.5742 2.76106C15.3618 2.26549 15.0786 1.76991 14.6539 1.34513C14.2291 0.920355 13.7335 0.637167 13.2379 0.424778C12.7424 0.212388 12.176 0.0707954 11.3264 0.0707954C10.4769 -1.08132e-06 10.1937 0 7.99901 0Z" fill="#F04259"/>
<path d="M7.99852 3.89502C5.73304 3.89502 3.89233 5.73573 3.89233 8.00122C3.89233 10.2667 5.73304 12.1074 7.99852 12.1074C10.264 12.1074 12.1047 10.2667 12.1047 8.00122C12.1047 5.73573 10.3348 3.89502 7.99852 3.89502ZM7.99852 10.6915C6.5118 10.6915 5.30826 9.48794 5.30826 8.00122C5.30826 6.51449 6.5118 5.31095 7.99852 5.31095C9.48524 5.31095 10.6888 6.51449 10.6888 8.00122C10.6888 9.48794 9.48524 10.6915 7.99852 10.6915Z" fill="#F04259"/>
<path d="M13.2372 3.75336C13.2372 4.24893 12.8124 4.7445 12.246 4.7445C11.7505 4.7445 11.2549 4.31973 11.2549 3.75336C11.2549 3.25778 11.6797 2.76221 12.246 2.76221C12.8124 2.76221 13.2372 3.18699 13.2372 3.75336Z" fill="#F04259"/>
</svg>
