<svg width="16" height="17" viewBox="0 0 16 17" fill="none" xmlns="http://www.w3.org/2000/svg">
<path d="M3.6526 5.42969H0.316406V16.1366H3.6526V5.42969Z" fill="#F04259"/>
<path d="M1.94649 4.03263C3.03269 4.03263 3.88614 3.17918 3.88614 2.09298C3.88614 1.00677 3.03269 0.15332 1.94649 0.15332C0.860283 0.15332 0.00683594 1.00677 0.00683594 2.09298C0.00683594 3.17918 0.860283 4.03263 1.94649 4.03263Z" fill="#F04259"/>
<path d="M8.93001 10.4735C8.93001 8.99938 9.62827 8.06834 10.9472 8.06834C12.1886 8.06834 12.7317 8.92179 12.7317 10.4735C12.7317 12.0252 12.7317 16.0597 12.7317 16.0597H15.9903C15.9903 16.0597 15.9903 12.1804 15.9903 9.30972C15.9903 6.43903 14.361 5.04248 12.111 5.04248C9.86102 5.04248 8.85242 6.82695 8.85242 6.82695V5.35282H5.67139V16.0597H8.85242C8.93001 16.1373 8.93001 12.1804 8.93001 10.4735Z" fill="#F04259"/>
</svg>
