<svg width="36" height="36" viewBox="0 0 36 36" fill="none" xmlns="http://www.w3.org/2000/svg">
<path d="M28.5002 17.25C29.3872 17.248 30.2658 17.4213 31.0857 17.7598C31.9055 18.0983 32.6504 18.5954 33.2776 19.2226C33.9048 19.8498 34.4019 20.5947 34.7404 21.4146C35.0789 22.2344 35.2522 23.113 35.2502 24C35.2502 27 30.8702 32.82 29.2502 34.965C29.1696 35.0623 29.0689 35.1408 28.9549 35.1952C28.8409 35.2496 28.7165 35.2786 28.5902 35.28C28.4634 35.2818 28.3379 35.2543 28.2234 35.1996C28.1089 35.145 28.0086 35.0647 27.9302 34.965C26.2352 32.82 21.9302 27 21.9302 24C21.9257 22.2394 22.6109 20.5471 23.8389 19.2854C25.0669 18.0238 26.7401 17.2931 28.5002 17.25V17.25Z" stroke="#F4F6F7" stroke-width="2" stroke-linecap="round" stroke-linejoin="round"/>
<path d="M28.5 26.625C29.9497 26.625 31.125 25.4497 31.125 24C31.125 22.5503 29.9497 21.375 28.5 21.375C27.0503 21.375 25.875 22.5503 25.875 24C25.875 25.4497 27.0503 26.625 28.5 26.625Z" stroke="#F4F6F7" stroke-width="2" stroke-linecap="round" stroke-linejoin="round"/>
<path d="M11.25 8.08508V32.0851" stroke="#F4F6F7" stroke-width="2" stroke-linecap="round" stroke-linejoin="round"/>
<path d="M21.75 15.75V0.75" stroke="#F4F6F7" stroke-width="2" stroke-linecap="round" stroke-linejoin="round"/>
<path d="M18.7051 27L11.6851 31.935C11.5599 32.0299 11.4072 32.0813 11.2501 32.0813C11.093 32.0813 10.9403 32.0299 10.8151 31.935L1.06511 24.975C0.968035 24.9044 0.888939 24.812 0.834217 24.7051C0.779495 24.5983 0.750682 24.4801 0.750109 24.36V1.50003C0.747725 1.36287 0.784578 1.22788 0.856328 1.11095C0.928078 0.994023 1.03174 0.900028 1.15511 0.840031C1.27202 0.766841 1.40717 0.728027 1.54511 0.728027C1.68304 0.728027 1.81819 0.766841 1.93511 0.840031L11.2501 8.08503L21.3151 0.885031C21.443 0.796655 21.5947 0.749316 21.7501 0.749316C21.9055 0.749316 22.0573 0.796655 22.1851 0.885031L31.9351 7.86003C32.0319 7.92743 32.1111 8.01713 32.1659 8.12156C32.2207 8.22599 32.2496 8.34209 32.2501 8.46003V15" stroke="#F4F6F7" stroke-width="2" stroke-linecap="round" stroke-linejoin="round"/>
</svg>
