<svg width="36" height="36" viewBox="0 0 36 36" fill="none" xmlns="http://www.w3.org/2000/svg">
<path d="M20.25 24.75H31.5" stroke="#F4F6F7" stroke-width="2" stroke-linecap="round" stroke-linejoin="round"/>
<path d="M20.25 27.75H27.75" stroke="#F4F6F7" stroke-width="2" stroke-linecap="round" stroke-linejoin="round"/>
<path d="M21.75 18.75C21.7152 17.8543 21.866 16.961 22.1929 16.1263C22.5198 15.2916 23.0158 14.5335 23.6497 13.8997C24.2835 13.2658 25.0416 12.7698 25.8763 12.4429C26.711 12.116 27.6043 11.9652 28.5 12C29.3958 11.9652 30.289 12.116 31.1237 12.4429C31.9584 12.7698 32.7165 13.2658 33.3504 13.8997C33.9842 14.5335 34.4802 15.2916 34.8071 16.1263C35.134 16.961 35.2848 17.8543 35.25 18.75H21.75Z" stroke="#F4F6F7" stroke-width="2" stroke-linecap="round" stroke-linejoin="round"/>
<path d="M24 5.25C24 6.44347 24.4741 7.58807 25.318 8.43198C26.1619 9.27589 27.3065 9.75 28.5 9.75C29.6935 9.75 30.8381 9.27589 31.682 8.43198C32.5259 7.58807 33 6.44347 33 5.25C33 4.05653 32.5259 2.91193 31.682 2.06802C30.8381 1.22411 29.6935 0.75 28.5 0.75C27.3065 0.75 26.1619 1.22411 25.318 2.06802C24.4741 2.91193 24 4.05653 24 5.25V5.25Z" stroke="#F4F6F7" stroke-width="2" stroke-linecap="round" stroke-linejoin="round"/>
<path d="M32.9565 4.62448C32.1613 5.04419 31.2741 5.25916 30.375 5.24998C29.3185 5.25035 28.2833 4.95309 27.3879 4.39226C26.4925 3.83143 25.7733 3.02972 25.3125 2.07898" stroke="#F4F6F7" stroke-width="2" stroke-linecap="round" stroke-linejoin="round"/>
<path d="M0.750018 35.25C0.715222 34.3543 0.866012 33.461 1.19292 32.6263C1.51983 31.7916 2.01579 31.0335 2.64966 30.3997C3.28352 29.7658 4.04161 29.2698 4.8763 28.9429C5.711 28.616 6.60427 28.4652 7.50002 28.5C8.39577 28.4652 9.28904 28.616 10.1237 28.9429C10.9584 29.2698 11.7165 29.7658 12.3504 30.3997C12.9842 31.0335 13.4802 31.7916 13.8071 32.6263C14.134 33.461 14.2848 34.3543 14.25 35.25H0.750018Z" stroke="#F4F6F7" stroke-width="2" stroke-linecap="round" stroke-linejoin="round"/>
<path d="M3 21.75C3 22.9435 3.47411 24.0881 4.31802 24.932C5.16193 25.7759 6.30653 26.25 7.5 26.25C8.69347 26.25 9.83807 25.7759 10.682 24.932C11.5259 24.0881 12 22.9435 12 21.75C12 20.5565 11.5259 19.4119 10.682 18.568C9.83807 17.7241 8.69347 17.25 7.5 17.25C6.30653 17.25 5.16193 17.7241 4.31802 18.568C3.47411 19.4119 3 20.5565 3 21.75V21.75Z" stroke="#F4F6F7" stroke-width="2" stroke-linecap="round" stroke-linejoin="round"/>
<path d="M11.9595 21.15C11.1739 21.5538 10.3017 21.7597 9.41848 21.75C8.35572 21.7502 7.31465 21.4493 6.41579 20.8823C5.51694 20.3152 4.79705 19.5052 4.33948 18.546" stroke="#F4F6F7" stroke-width="2" stroke-linecap="round" stroke-linejoin="round"/>
<path d="M18.75 21.75C18.3522 21.75 17.9706 21.908 17.6893 22.1893C17.408 22.4706 17.25 22.8522 17.25 23.25V30.75C17.25 31.1478 17.408 31.5294 17.6893 31.8107C17.9706 32.092 18.3522 32.25 18.75 32.25H21V35.25L24.75 32.25H33.75C34.1478 32.25 34.5294 32.092 34.8107 31.8107C35.092 31.5294 35.25 31.1478 35.25 30.75V23.25C35.25 22.8522 35.092 22.4706 34.8107 22.1893C34.5294 21.908 34.1478 21.75 33.75 21.75H18.75Z" stroke="#F4F6F7" stroke-width="2" stroke-linecap="round" stroke-linejoin="round"/>
<path d="M15 3.75H3.75" stroke="#F4F6F7" stroke-width="2" stroke-linecap="round" stroke-linejoin="round"/>
<path d="M11.25 6.75H3.75" stroke="#F4F6F7" stroke-width="2" stroke-linecap="round" stroke-linejoin="round"/>
<path d="M17.25 0.75C17.6478 0.75 18.0294 0.908035 18.3107 1.18934C18.592 1.47064 18.75 1.85218 18.75 2.25V9.75C18.75 10.1478 18.592 10.5294 18.3107 10.8107C18.0294 11.092 17.6478 11.25 17.25 11.25H15V15L11.25 11.25H2.25C1.85218 11.25 1.47064 11.092 1.18934 10.8107C0.908035 10.5294 0.75 10.1478 0.75 9.75V2.25C0.75 1.85218 0.908035 1.47064 1.18934 1.18934C1.47064 0.908035 1.85218 0.75 2.25 0.75H17.25Z" stroke="#F4F6F7" stroke-width="2" stroke-linecap="round" stroke-linejoin="round"/>
</svg>
