<svg width="36" height="36" viewBox="0 0 36 36" fill="none" xmlns="http://www.w3.org/2000/svg">
<path d="M15.75 14.028V10.278C15.75 9.68122 15.9871 9.10892 16.409 8.68696C16.831 8.26501 17.4033 8.02795 18 8.02795C18.5967 8.02795 19.169 8.26501 19.591 8.68696C20.0129 9.10892 20.25 9.68122 20.25 10.278V14.028" stroke="#F4F6F7" stroke-width="2" stroke-linecap="round" stroke-linejoin="round"/>
<path d="M12.75 5.29956V13.2781C12.75 13.477 12.829 13.6677 12.9697 13.8084C13.1103 13.949 13.3011 14.0281 13.5 14.0281H22.5C22.6989 14.0281 22.8897 13.949 23.0303 13.8084C23.171 13.6677 23.25 13.477 23.25 13.2781V5.29956" stroke="#F4F6F7" stroke-width="2" stroke-linecap="round" stroke-linejoin="round"/>
<path d="M9.75 8.02801L17.148 1.30201C17.3811 1.08994 17.6849 0.972412 18 0.972412C18.3151 0.972412 18.6189 1.08994 18.852 1.30201L26.25 8.02801" stroke="#F4F6F7" stroke-width="2" stroke-linecap="round" stroke-linejoin="round"/>
<path d="M30 30.528H22.5C22.0858 30.528 21.75 30.8637 21.75 31.278V34.278C21.75 34.6922 22.0858 35.028 22.5 35.028H30C30.4142 35.028 30.75 34.6922 30.75 34.278V31.278C30.75 30.8637 30.4142 30.528 30 30.528Z" stroke="#F4F6F7" stroke-width="2" stroke-linecap="round" stroke-linejoin="round"/>
<path d="M29.25 30.528V28.23C29.25 28.23 33.1575 24.3615 34.809 22.7175C34.9487 22.5782 35.0596 22.4127 35.1353 22.2304C35.211 22.0482 35.25 21.8528 35.25 21.6555V10.1835C35.25 10.1835 31.5 8.82448 31.5 19.278L27.0465 23.73L28.0785 19.23C28.593 17.0745 26.622 16.152 25.5465 17.8245C24.6027 19.7314 23.834 21.72 23.25 23.766V30.528" stroke="#F4F6F7" stroke-width="2" stroke-linecap="round" stroke-linejoin="round"/>
<path d="M13.5 30.528H6C5.58579 30.528 5.25 30.8637 5.25 31.278V34.278C5.25 34.6922 5.58579 35.028 6 35.028H13.5C13.9142 35.028 14.25 34.6922 14.25 34.278V31.278C14.25 30.8637 13.9142 30.528 13.5 30.528Z" stroke="#F4F6F7" stroke-width="2" stroke-linecap="round" stroke-linejoin="round"/>
<path d="M6.75 30.528V28.23C6.75 28.23 3.0525 24.342 1.2435 22.7055C1.08894 22.5656 0.965235 22.3951 0.880266 22.2047C0.795296 22.0144 0.750931 21.8084 0.75 21.6V10.1835C0.75 10.1835 4.5 8.82448 4.5 19.278L8.9535 23.73L7.9215 19.23C7.4055 17.0745 9.378 16.152 10.4535 17.8245C11.3973 19.7314 12.166 21.72 12.75 23.766V30.528" stroke="#F4F6F7" stroke-width="2" stroke-linecap="round" stroke-linejoin="round"/>
</svg>
