<svg width="36" height="36" viewBox="0 0 36 36" fill="none" xmlns="http://www.w3.org/2000/svg">
<path d="M15.516 22.548C16.0716 23.0464 16.7962 23.3146 17.5425 23.298H17.964C18.7099 23.315 19.4341 23.0467 19.989 22.548" stroke="#F4F6F7" stroke-width="2" stroke-linecap="round" stroke-linejoin="round"/>
<path d="M16.2615 16.584C16.1043 16.3355 15.8826 16.1345 15.6199 16.0024C15.3573 15.8703 15.0637 15.8121 14.7705 15.834C14.4774 15.8124 14.1839 15.8708 13.9214 16.0029C13.6588 16.1349 13.437 16.3358 13.2795 16.584" stroke="#F4F6F7" stroke-width="2" stroke-linecap="round" stroke-linejoin="round"/>
<path d="M22.2255 16.584C22.0683 16.3355 21.8466 16.1345 21.5839 16.0024C21.3213 15.8703 21.0277 15.8121 20.7345 15.834C20.4414 15.8124 20.1479 15.8708 19.8853 16.0029C19.6228 16.1349 19.401 16.3358 19.2435 16.584" stroke="#F4F6F7" stroke-width="2" stroke-linecap="round" stroke-linejoin="round"/>
<path d="M17.7825 27.7665C19.851 27.7665 24.477 25.2 25.1325 21.2595C25.1733 21.0185 25.2724 20.7911 25.4211 20.5971C25.5699 20.4031 25.7638 20.2484 25.986 20.1465C27.594 19.416 27.996 16.4895 26.6985 15.8385C27.438 11.388 27.4485 3.91199 17.7795 3.91199C8.11049 3.91199 8.12549 11.388 8.86499 15.8385C7.56749 16.4895 7.96499 19.416 9.57749 20.1465C9.79967 20.2484 9.99358 20.4031 10.1423 20.5971C10.2911 20.7911 10.3902 21.0185 10.431 21.2595C11.0895 25.2 15.7155 27.7665 17.7825 27.7665Z" stroke="#F4F6F7" stroke-width="2" stroke-linecap="round" stroke-linejoin="round"/>
<path d="M8.57996 12.834C10.575 12.7875 14.595 13.398 17.7525 9.59851C20.9265 13.416 25.0155 12.7965 26.985 12.8475" stroke="#F4F6F7" stroke-width="2" stroke-linecap="round" stroke-linejoin="round"/>
<path d="M25.8494 30.0645C25.1439 31.6109 24.0087 32.9219 22.5789 33.8411C21.1491 34.7604 19.4852 35.2492 17.7854 35.2492C16.0857 35.2492 14.4217 34.7604 12.992 33.8411C11.5622 32.9219 10.4269 31.6109 9.72144 30.0645" stroke="#F4F6F7" stroke-width="2" stroke-linecap="round" stroke-linejoin="round"/>
<path d="M34.5 35.2215C34.1974 34.4439 33.7347 33.7387 33.1419 33.1516C32.5491 32.5644 31.8394 32.1085 31.059 31.8135L23.559 29.2965C23.4052 29.2456 23.2392 29.2459 23.0856 29.2973C22.932 29.3487 22.7992 29.4484 22.707 29.5815C22.1595 30.3821 21.425 31.0371 20.5671 31.4898C19.7092 31.9424 18.7539 32.179 17.784 32.179C16.814 32.179 15.8587 31.9424 15.0009 31.4898C14.143 31.0371 13.4085 30.3821 12.861 29.5815C12.7688 29.4484 12.636 29.3487 12.4824 29.2973C12.3288 29.2459 12.1627 29.2456 12.009 29.2965L4.50899 31.8135C3.72851 32.1085 3.01882 32.5643 2.426 33.1515C1.83317 33.7386 1.37049 34.4439 1.06799 35.2215" stroke="#F4F6F7" stroke-width="2" stroke-linecap="round" stroke-linejoin="round"/>
<path d="M25.29 20.8034C26.5061 22.081 28.1068 22.9254 29.8478 23.2079C31.5888 23.4904 33.3744 23.1954 34.932 22.3679C34.932 22.3679 31.95 19.3859 31.95 7.45945C31.95 6.07704 31.523 4.72839 30.7273 3.59791C29.9316 2.46743 28.8062 1.61031 27.5049 1.14377C26.2036 0.677223 24.79 0.624023 23.4573 0.991444C22.1246 1.35887 20.9379 2.12897 20.0595 3.19645L19.3785 3.98545" stroke="#F4F6F7" stroke-width="2" stroke-linecap="round" stroke-linejoin="round"/>
</svg>
