<svg width="36" height="36" viewBox="0 0 36 36" fill="none" xmlns="http://www.w3.org/2000/svg">
<path d="M30.75 11.2275C27.3685 11.2275 24.1255 12.5708 21.7344 14.9619C19.3433 17.353 18 20.596 18 23.9775C21.3815 23.9775 24.6245 22.6342 27.0156 20.2431C29.4067 17.8521 30.75 14.609 30.75 11.2275V11.2275Z" stroke="#F4F6F7" stroke-width="2" stroke-linecap="round" stroke-linejoin="round"/>
<path d="M21.3538 15.36C22.2285 12.8573 22.3791 10.1586 21.7885 7.57411C21.1978 4.98962 19.8898 2.62427 18.0148 0.75C16.1335 2.63183 14.8237 5.00803 14.237 7.60348C13.6503 10.1989 13.8108 12.9075 14.6998 15.4155" stroke="#F4F6F7" stroke-width="2" stroke-linecap="round" stroke-linejoin="round"/>
<path d="M5.25 11.2275C8.63151 11.2275 11.8745 12.5708 14.2656 14.9619C16.6567 17.353 18 20.596 18 23.9775C14.6185 23.9775 11.3755 22.6342 8.98439 20.2431C6.5933 17.8521 5.25 14.609 5.25 11.2275V11.2275Z" stroke="#F4F6F7" stroke-width="2" stroke-linecap="round" stroke-linejoin="round"/>
<path d="M18 27V23.2275" stroke="#F4F6F7" stroke-width="2" stroke-linecap="round" stroke-linejoin="round"/>
<path d="M34.4534 35.2501C34.3117 34.0904 33.8332 32.9978 33.077 32.1073C32.3209 31.2168 31.3202 30.5675 30.1989 30.2398C29.0775 29.9121 27.8847 29.9203 26.768 30.2635C25.6513 30.6067 24.6597 31.2697 23.9159 32.1706C23.722 30.7391 23.0157 29.4264 21.9279 28.4759C20.84 27.5255 19.4445 27.0017 17.9999 27.0017C16.5553 27.0017 15.1598 27.5255 14.0719 28.4759C12.9841 29.4264 12.2777 30.7391 12.0839 32.1706C11.3401 31.2697 10.3485 30.6067 9.23177 30.2635C8.11507 29.9203 6.92225 29.9121 5.80091 30.2398C4.67957 30.5675 3.6789 31.2168 2.92272 32.1073C2.16654 32.9978 1.68803 34.0904 1.54639 35.2501" stroke="#F4F6F7" stroke-width="2" stroke-linecap="round" stroke-linejoin="round"/>
</svg>
