<svg width="18" height="15" viewBox="0 0 18 15" fill="none" xmlns="http://www.w3.org/2000/svg">
<path d="M0.46582 13.054C2.01754 14.0626 3.87961 14.6058 5.81926 14.6058C12.3365 14.6058 15.9831 9.09714 15.7503 4.2092C16.4486 3.74369 16.9917 3.123 17.4572 2.42472C16.8365 2.73506 16.1382 2.89023 15.44 2.96782C16.1382 2.5023 16.6813 1.88161 16.9917 1.02817C16.2934 1.4161 15.5951 1.72645 14.7417 1.88162C14.121 1.18334 13.19 0.79541 12.1813 0.79541C9.93134 0.79541 8.30202 2.89024 8.76754 5.06265C5.89685 4.90748 3.25892 3.51092 1.55202 1.4161C0.620988 2.96782 1.08651 5.06265 2.63824 6.07127C2.09513 6.07127 1.55203 5.9161 1.08651 5.60575C1.08651 7.23506 2.17271 8.7092 3.87961 9.09713C3.41409 9.25231 2.87099 9.2523 2.32788 9.17472C2.7934 10.5713 4.03479 11.5799 5.58651 11.5799C4.18996 12.7437 2.32789 13.2092 0.46582 13.054Z" fill="#F04259"/>
</svg>
